<mxfile host="app.diagrams.net" modified="2024-07-08T08:53:16.581Z" agent="Mozilla/5.0 (Macintosh; Intel Mac OS X 10_15_7) AppleWebKit/537.36 (KHTML, like Gecko) Chrome/126.0.0.0 Safari/537.36" version="24.6.4" etag="CZ29Um_06TqwElmicJDP" type="github">
  <diagram name="Page-1" id="YGG4WHNx8ZuCDfxd6i8g">
    <mxGraphModel>
      <root>
        <mxCell id="0" />
        <mxCell id="1" parent="0" />
      </root>
    </mxGraphModel>
  </diagram>
</mxfile>
